<svg version="1.1" id="Layer_1" xmlns="http://www.w3.org/2000/svg" xmlns:xlink="http://www.w3.org/1999/xlink" x="0px" y="0px"
	 width="100%" viewBox="0 0 1024 1024" enable-background="new 0 0 1024 1024" xml:space="preserve">
<path fill="#031726" opacity="1.000000" stroke="none" 
	d="
M671.000000,1025.000000 
	C447.333344,1025.000000 224.166672,1025.000000 1.000000,1025.000000 
	C1.000000,683.666687 1.000000,342.333344 1.000000,1.000000 
	C342.333344,1.000000 683.666687,1.000000 1025.000000,1.000000 
	C1025.000000,342.333344 1025.000000,683.666687 1025.000000,1025.000000 
	C907.166687,1025.000000 789.333313,1025.000000 671.000000,1025.000000 
M708.478333,507.169312 
	C713.178223,495.441986 718.519287,483.924988 722.448669,471.944946 
	C731.511230,444.314178 734.903625,415.971649 732.306885,386.837830 
	C728.480164,343.904327 713.343201,305.432953 687.406860,271.280853 
	C670.311157,248.769836 649.831970,229.797226 625.945312,214.328247 
	C602.906555,199.408325 578.093323,188.980515 551.642578,182.466980 
	C518.598328,174.329758 485.115540,173.919510 451.649139,179.491608 
	C430.070892,183.084351 409.515564,190.206009 389.674438,199.497177 
	C367.168610,210.036133 347.046875,224.077835 329.046448,241.010788 
	C319.790283,249.718094 311.292786,259.345764 303.256439,269.212372 
	C286.391083,289.918915 273.787628,313.231110 265.947601,338.672455 
	C261.720947,352.388245 259.654816,366.886749 257.766510,381.184326 
	C252.043335,424.517303 259.209229,465.630493 280.025391,504.642548 
	C271.965424,508.872498 263.792358,512.902344 255.871460,517.378418 
	C243.412476,524.419006 231.774719,532.500671 222.159210,543.376343 
	C212.647659,554.134521 209.727005,573.393066 217.264221,585.329895 
	C224.676834,597.069580 234.368210,606.822510 245.570038,615.170532 
	C255.867233,622.844360 266.890991,629.083069 278.091217,635.348633 
	C299.031860,647.062988 321.086487,655.677795 343.819672,662.714966 
	C357.295044,666.886414 371.086578,670.111633 384.851807,673.255127 
	C409.395538,678.859924 434.344177,681.841492 459.472229,682.684021 
	C488.914490,683.671143 518.279663,683.368958 547.714478,680.165466 
	C574.970520,677.199036 601.701965,672.081055 627.943420,664.757629 
	C654.515503,657.341919 680.532043,648.214233 704.895386,634.646545 
	C721.049194,625.650696 735.847107,615.416138 747.979553,601.408936 
	C764.793579,581.996765 765.277100,559.533508 748.977905,540.379761 
	C737.520874,526.916199 723.487671,516.617920 708.478333,507.169312 
z"/>
<path fill="#C78270" opacity="1.000000" stroke="none" 
	d="
M280.509552,504.043579 
	C259.209229,465.630493 252.043335,424.517303 257.766510,381.184326 
	C259.654816,366.886749 261.720947,352.388245 265.947601,338.672455 
	C273.787628,313.231110 286.391083,289.918915 303.256439,269.212372 
	C311.292786,259.345764 319.790283,249.718094 329.046448,241.010788 
	C347.046875,224.077835 367.168610,210.036133 389.674438,199.497177 
	C409.515564,190.206009 430.070892,183.084351 451.649139,179.491608 
	C485.115540,173.919510 518.598328,174.329758 551.642578,182.466980 
	C578.093323,188.980515 602.906555,199.408325 625.945312,214.328247 
	C649.831970,229.797226 670.311157,248.769836 687.406860,271.280853 
	C713.343201,305.432953 728.480164,343.904327 732.306885,386.837830 
	C734.903625,415.971649 731.511230,444.314178 722.448669,471.944946 
	C718.519287,483.924988 713.178223,495.441986 708.042358,507.532104 
	C700.345032,504.269135 693.335205,499.967987 685.772278,497.152557 
	C667.739563,490.439545 649.726013,483.380432 631.181030,478.418182 
	C611.352112,473.112335 590.922668,470.051025 570.536865,465.760681 
	C567.653137,461.823059 564.987915,458.134735 562.532593,454.736877 
	C571.153015,445.286072 578.758606,435.327057 581.472351,422.544708 
	C584.079529,410.264282 581.744812,398.479523 577.355774,386.933411 
	C573.286133,376.227692 566.661499,367.231354 558.992798,358.496063 
	C555.152466,351.716705 551.567017,345.168854 547.648804,338.826477 
	C543.669617,332.385406 539.916199,325.716888 533.118042,321.568146 
	C529.906006,319.607910 527.014832,318.457367 524.774475,322.622894 
	C522.664368,326.546051 520.402405,330.427979 518.736572,334.542358 
	C512.197388,350.692963 496.670258,356.048065 481.686340,347.222473 
	C473.163391,342.202423 464.581665,337.280487 455.979218,332.397491 
	C449.314178,328.614227 445.150757,329.980652 442.108948,336.945099 
	C440.782043,339.983276 439.412140,343.064484 438.621033,346.264404 
	C434.692444,362.155853 430.950287,378.093384 426.927124,394.330902 
	C425.009491,404.780548 422.473694,414.857391 425.707092,425.216675 
	C426.002380,426.162628 424.244659,428.305878 422.952728,429.102966 
	C412.171631,435.754730 401.712738,442.756744 393.743561,452.856018 
	C388.196899,459.885345 382.623413,466.893494 376.646454,473.902435 
	C357.208588,479.101868 338.048431,483.863312 319.210876,489.671082 
	C306.081390,493.719025 293.394287,499.201782 280.509552,504.043579 
z"/>
<path fill="#6496EE" opacity="1.000000" stroke="none" 
	d="
M570.755310,466.009979 
	C590.922668,470.051025 611.352112,473.112335 631.181030,478.418182 
	C649.726013,483.380432 667.739563,490.439545 685.772278,497.152557 
	C693.335205,499.967987 700.345032,504.269135 707.913574,507.897797 
	C723.487671,516.617920 737.520874,526.916199 748.977905,540.379761 
	C765.277100,559.533508 764.793579,581.996765 747.979553,601.408936 
	C735.847107,615.416138 721.049194,625.650696 704.895386,634.646545 
	C680.532043,648.214233 654.515503,657.341919 627.943420,664.757629 
	C601.701965,672.081055 574.970520,677.199036 547.714478,680.165466 
	C518.279663,683.368958 488.914490,683.671143 459.472229,682.684021 
	C434.344177,681.841492 409.395538,678.859924 384.851807,673.255127 
	C371.086578,670.111633 357.295044,666.886414 343.819672,662.714966 
	C321.086487,655.677795 299.031860,647.062988 278.091217,635.348633 
	C266.890991,629.083069 255.867233,622.844360 245.570038,615.170532 
	C234.368210,606.822510 224.676834,597.069580 217.264221,585.329895 
	C209.727005,573.393066 212.647659,554.134521 222.159210,543.376343 
	C231.774719,532.500671 243.412476,524.419006 255.871460,517.378418 
	C263.792358,512.902344 271.965424,508.872498 280.267456,504.343079 
	C293.394287,499.201782 306.081390,493.719025 319.210876,489.671082 
	C338.048431,483.863312 357.208588,479.101868 376.600586,474.260986 
	C374.692413,479.098846 372.414703,483.569427 369.888733,488.282959 
	C358.952271,510.393951 347.472290,531.898438 341.646515,555.829590 
	C336.465759,577.111023 338.952026,596.050293 356.828186,610.796692 
	C363.496918,616.297913 370.651215,620.709045 380.263367,618.657227 
	C384.784668,621.197266 388.848297,623.858337 393.219360,625.841858 
	C416.455322,636.385437 440.726410,641.885193 466.394592,640.854919 
	C496.488953,639.647156 522.607788,629.320557 542.981018,606.807129 
	C562.031189,585.755798 575.354248,561.256653 582.111572,533.638672 
	C586.449585,515.908203 586.758484,497.975342 578.710815,480.868469 
	C576.322510,475.791687 573.421448,470.956085 570.755310,466.009979 
z"/>
<path fill="#050505" opacity="1.000000" stroke="none" 
	d="
M427.142487,394.014648 
	C430.950287,378.093384 434.692444,362.155853 438.621033,346.264404 
	C439.412140,343.064484 440.782043,339.983276 442.108948,336.945099 
	C445.150757,329.980652 449.314178,328.614227 455.979218,332.397491 
	C464.581665,337.280487 473.163391,342.202423 481.686340,347.222473 
	C496.670258,356.048065 512.197388,350.692963 518.736572,334.542358 
	C520.402405,330.427979 522.664368,326.546051 524.774475,322.622894 
	C527.014832,318.457367 529.906006,319.607910 533.118042,321.568146 
	C539.916199,325.716888 543.669617,332.385406 547.648804,338.826477 
	C551.567017,345.168854 555.152466,351.716705 558.909424,358.879578 
	C555.680481,363.592651 557.042725,367.784668 558.557739,372.430847 
	C560.151733,388.477020 555.258240,402.204681 545.232178,413.793945 
	C541.191284,418.464905 534.439575,417.390137 528.695435,416.695496 
	C522.142212,415.903015 515.714600,413.619659 509.066284,416.390930 
	C507.695099,416.962524 505.691345,417.052917 504.346344,416.489075 
	C492.453064,411.503815 481.913788,404.139099 473.359589,394.748718 
	C465.399902,386.010925 459.069763,375.788696 451.271301,365.200470 
	C444.489105,374.893707 435.995453,383.120300 432.677368,395.018951 
	C430.578217,394.684174 428.860352,394.349426 427.142487,394.014648 
M536.265381,376.787689 
	C535.164612,381.080444 534.063904,385.373199 532.965515,389.656769 
	C536.817810,391.857117 540.646301,390.753387 542.188599,387.023346 
	C543.791687,383.146301 541.591675,374.479858 538.097961,371.331940 
	C537.522156,372.937866 536.970215,374.477356 536.265381,376.787689 
M492.118134,397.189850 
	C489.033569,396.834351 487.979614,395.084015 488.226227,392.060547 
	C488.595367,387.534363 490.952759,384.631134 495.824707,382.919342 
	C494.621918,383.139648 494.218445,383.253937 493.809662,383.278076 
	C493.316559,383.307129 492.811981,383.198944 492.324402,383.254974 
	C488.222229,383.726288 485.667084,386.989410 485.447754,392.003906 
	C485.206909,397.510223 487.397003,401.586670 491.302979,402.093872 
	C492.585907,402.260468 494.044464,401.074219 495.422699,400.506592 
	C494.571838,399.500610 493.720978,398.494629 492.118134,397.189850 
M498.941101,394.274933 
	C500.195679,393.593750 501.450256,392.912598 502.704865,392.231445 
	C502.173065,391.330933 501.811310,389.892548 501.069031,389.657898 
	C499.995667,389.318604 498.646698,389.851135 497.415283,390.011749 
	C497.715546,391.360779 498.015808,392.709839 498.941101,394.274933 
z"/>
<path fill="#211B14" opacity="1.000000" stroke="none" 
	d="
M558.440491,371.978088 
	C557.042725,367.784668 555.680481,363.592651 559.018250,359.201233 
	C566.661499,367.231354 573.286133,376.227692 577.355774,386.933411 
	C581.744812,398.479523 584.079529,410.264282 581.472351,422.544708 
	C578.758606,435.327057 571.153015,445.286072 562.532593,454.736877 
	C564.987915,458.134735 567.653137,461.823059 570.536865,465.760681 
	C573.421448,470.956085 576.322510,475.791687 578.710815,480.868469 
	C586.758484,497.975342 586.449585,515.908203 582.111572,533.638672 
	C575.354248,561.256653 562.031189,585.755798 542.981018,606.807129 
	C522.607788,629.320557 496.488953,639.647156 466.394592,640.854919 
	C440.726410,641.885193 416.455322,636.385437 393.219360,625.841858 
	C388.848297,623.858337 384.784668,621.197266 380.335693,618.354004 
	C382.248047,616.228882 384.403870,614.598694 386.648438,613.333923 
	C397.422821,621.631958 409.585846,626.510315 422.341675,629.526428 
	C439.378540,633.554810 456.672668,634.711731 474.279114,633.462463 
	C495.220276,631.976562 513.789856,624.546875 528.991882,610.854553 
	C554.931030,587.491272 571.297302,558.173645 576.705261,523.406799 
	C580.970398,495.987122 572.734863,472.949860 550.974548,455.108643 
	C551.933594,454.011627 552.706299,453.126251 553.826294,452.235657 
	C558.183960,448.905945 563.162903,446.259369 566.042908,442.143890 
	C581.489441,420.071442 577.014893,397.679688 565.414307,376.753906 
	C564.192810,374.550446 560.816895,373.541321 558.440491,371.978088 
z"/>
<path fill="#211B14" opacity="1.000000" stroke="none" 
	d="
M426.927124,394.330872 
	C428.860352,394.349426 430.578217,394.684174 432.725952,395.420532 
	C430.344940,407.914276 426.774689,420.011169 433.134125,432.268982 
	C431.389954,433.143250 429.891663,433.793549 428.061157,434.648193 
	C411.919220,442.033844 399.726166,453.530548 389.796906,467.453156 
	C384.611816,474.723541 380.271759,482.596558 375.196411,490.086121 
	C373.274170,489.329865 371.705566,488.684937 370.136963,488.040009 
	C372.414703,483.569427 374.692413,479.098846 377.016052,474.269714 
	C382.623413,466.893494 388.196899,459.885345 393.743561,452.856018 
	C401.712738,442.756744 412.171631,435.754730 422.952728,429.102966 
	C424.244659,428.305878 426.002380,426.162628 425.707092,425.216675 
	C422.473694,414.857391 425.009491,404.780548 426.927124,394.330872 
z"/>
<path fill="#050505" opacity="1.000000" stroke="none" 
	d="
M369.888733,488.282959 
	C371.705566,488.684937 373.274170,489.329865 375.146027,490.465149 
	C372.704407,497.278778 368.805817,503.363556 367.439880,509.971832 
	C363.923218,526.984680 361.510437,544.223938 363.215820,561.732056 
	C364.003754,569.821045 365.009460,577.755737 370.023346,584.654480 
	C375.748627,592.532104 383.399139,595.948242 393.580719,595.033752 
	C392.168457,601.853882 392.423035,608.535095 386.559692,612.968506 
	C384.403870,614.598694 382.248047,616.228882 380.019897,618.162415 
	C370.651215,620.709045 363.496918,616.297913 356.828186,610.796692 
	C338.952026,596.050293 336.465759,577.111023 341.646515,555.829590 
	C347.472290,531.898438 358.952271,510.393951 369.888733,488.282959 
z"/>
<path fill="#FEFEFE" opacity="1.000000" stroke="none" 
	d="
M433.380005,432.045074 
	C426.774689,420.011169 430.344940,407.914276 433.107239,395.420532 
	C435.995453,383.120300 444.489105,374.893707 451.271301,365.200470 
	C459.069763,375.788696 465.399902,386.010925 473.359589,394.748718 
	C481.913788,404.139099 492.453064,411.503815 504.346344,416.489075 
	C505.691345,417.052917 507.695099,416.962524 509.066284,416.390930 
	C515.714600,413.619659 522.142212,415.903015 528.695435,416.695496 
	C534.439575,417.390137 541.191284,418.464905 545.232178,413.793945 
	C555.258240,402.204681 560.151733,388.477020 558.557739,372.430847 
	C560.816895,373.541321 564.192810,374.550446 565.414307,376.753906 
	C577.014893,397.679688 581.489441,420.071442 566.042908,442.143890 
	C563.162903,446.259369 558.183960,448.905945 553.522522,451.938629 
	C551.237793,451.638245 549.557068,451.371399 547.977722,451.660004 
	C525.340149,455.796814 502.578583,455.737122 480.197845,451.072662 
	C463.644775,447.622803 448.225342,440.274139 433.380005,432.045074 
z"/>
<path fill="#FEFEFE" opacity="1.000000" stroke="none" 
	d="
M536.341797,376.402283 
	C536.970215,374.477356 537.522156,372.937866 538.097961,371.331940 
	C541.591675,374.479858 543.791687,383.146301 542.188599,387.023346 
	C540.646301,390.753387 536.817810,391.857117 532.965515,389.656769 
	C534.063904,385.373199 535.164612,381.080444 536.341797,376.402283 
z"/>
<path fill="#FEFEFE" opacity="1.000000" stroke="none" 
	d="
M492.494141,397.339233 
	C493.720978,398.494629 494.571838,399.500610 495.422699,400.506592 
	C494.044464,401.074219 492.585907,402.260468 491.302979,402.093872 
	C487.397003,401.586670 485.206909,397.510223 485.447754,392.003906 
	C485.667084,386.989410 488.222229,383.726288 492.324402,383.254974 
	C492.811981,383.198944 493.316559,383.307129 493.809662,383.278076 
	C494.218445,383.253937 494.621918,383.139648 495.824707,382.919342 
	C490.952759,384.631134 488.595367,387.534363 488.226227,392.060547 
	C487.979614,395.084015 489.033569,396.834351 492.494141,397.339233 
z"/>
<path fill="#FEFEFE" opacity="1.000000" stroke="none" 
	d="
M498.628571,394.166901 
	C498.015808,392.709839 497.715546,391.360779 497.415283,390.011749 
	C498.646698,389.851135 499.995667,389.318604 501.069031,389.657898 
	C501.811310,389.892548 502.173065,391.330933 502.704834,392.231445 
	C501.450256,392.912598 500.195679,393.593750 498.628571,394.166901 
z"/>
<path fill="#FEFEFE" opacity="1.000000" stroke="none" 
	d="
M386.648438,613.333923 
	C392.423035,608.535095 392.168457,601.853882 393.580719,595.033752 
	C383.399139,595.948242 375.748627,592.532104 370.023346,584.654480 
	C365.009460,577.755737 364.003754,569.821045 363.215820,561.732056 
	C361.510437,544.223938 363.923218,526.984680 367.439880,509.971832 
	C368.805817,503.363556 372.704407,497.278778 375.499664,490.576477 
	C380.271759,482.596558 384.611816,474.723541 389.796906,467.453156 
	C399.726166,453.530548 411.919220,442.033844 428.364990,434.818176 
	C432.236420,436.437195 435.483795,438.067535 438.704987,439.748016 
	C452.678406,447.038025 466.705902,454.436279 482.554047,456.544037 
	C505.314545,459.571045 528.137756,460.858612 550.788208,455.320282 
	C572.734863,472.949860 580.970398,495.987122 576.705261,523.406799 
	C571.297302,558.173645 554.931030,587.491272 528.991882,610.854553 
	C513.789856,624.546875 495.220276,631.976562 474.279114,633.462463 
	C456.672668,634.711731 439.378540,633.554810 422.341675,629.526428 
	C409.585846,626.510315 397.422821,621.631958 386.648438,613.333923 
z"/>
<path fill="#F6C427" opacity="1.000000" stroke="none" 
	d="
M550.974548,455.108643 
	C528.137756,460.858612 505.314545,459.571045 482.554047,456.544037 
	C466.705902,454.436279 452.678406,447.038025 438.704987,439.748016 
	C435.483795,438.067535 432.236420,436.437195 428.697235,434.613831 
	C429.891663,433.793549 431.389954,433.143250 433.134125,432.268982 
	C448.225342,440.274139 463.644775,447.622803 480.197845,451.072662 
	C502.578583,455.737122 525.340149,455.796814 547.977722,451.660004 
	C549.557068,451.371399 551.237793,451.638245 553.175171,451.943848 
	C552.706299,453.126251 551.933594,454.011627 550.974548,455.108643 
z"/>
</svg>